<svg width="65" height="64" viewBox="0 0 65 64" fill="none" xmlns="http://www.w3.org/2000/svg">
<path d="M37.6365 44.6378L47.1984 29.2628C47.2296 29.2131 47.2558 29.1608 47.2762 29.1066C48.9273 26.414 49.7991 23.3381 49.7991 20.1978C49.7991 10.7768 42.1346 3.1123 32.7137 3.1123C23.2927 3.1123 15.6276 10.7768 15.6276 20.1978C15.6276 23.3387 16.5007 26.4159 18.1531 29.1104C18.1722 29.1576 18.1945 29.2035 18.2213 29.2481L27.4401 44.6761C20.2838 45.6876 15.5778 48.6302 15.5778 52.1997C15.5778 56.6225 23.0938 60.0862 32.6882 60.0862C42.2825 60.0862 49.7985 56.6219 49.7985 52.1997C49.7991 48.6136 44.8737 45.6053 37.6365 44.6378ZM19.8705 28.2488C18.3463 25.8228 17.5408 23.039 17.5408 20.1978C17.5408 11.8317 24.347 5.02557 32.7137 5.02557C41.0797 5.02557 47.8859 11.8317 47.8859 20.1978C47.8859 23.0402 47.0804 25.824 45.5568 28.2488C45.5249 28.2998 45.4987 28.3527 45.4777 28.4076L35.3757 44.6493C35.2239 44.8821 35.1939 44.935 35.0083 45.2399L32.4573 49.3419L19.956 28.421C19.9337 28.3617 19.905 28.3036 19.8705 28.2488ZM32.6888 58.1729C23.7328 58.1729 17.4917 55.0243 17.4917 52.1997C17.4917 49.6359 22.192 47.2201 28.514 46.472L31.6199 51.6703C31.7915 51.9567 32.0989 52.1334 32.4324 52.1359C32.435 52.1359 32.4382 52.1359 32.4407 52.1359C32.7711 52.1359 33.0785 51.965 33.2532 51.6844L36.5185 46.4344C42.9413 47.1302 47.8852 49.6072 47.8852 52.1997C47.8859 55.0249 41.6448 58.1729 32.6888 58.1729Z" fill="url(#paint0_linear_609_33)"/>
<path d="M38.9012 20.1977C38.9012 16.7723 36.1142 13.9854 32.6888 13.9854C29.2634 13.9854 26.4764 16.7723 26.4764 20.1977C26.4764 23.6231 29.2634 26.4101 32.6888 26.4101C36.1142 26.4101 38.9012 23.6231 38.9012 20.1977ZM28.3897 20.1977C28.3897 17.8272 30.3182 15.8986 32.6888 15.8986C35.0593 15.8986 36.9879 17.8272 36.9879 20.1977C36.9879 22.5683 35.06 24.4968 32.6888 24.4968C30.3176 24.4968 28.3897 22.5683 28.3897 20.1977Z" fill="url(#paint1_linear_609_33)"/>
<defs>
<linearGradient id="paint0_linear_609_33" x1="41.0023" y1="-3.46863" x2="-3.16331" y2="27.9305" gradientUnits="userSpaceOnUse">
<stop offset="0.1177" stop-color="#7ACA37"/>
<stop offset="0.2561" stop-color="#70C53A"/>
<stop offset="0.4886" stop-color="#56B641"/>
<stop offset="0.7848" stop-color="#2C9F4E"/>
<stop offset="1" stop-color="#098C58"/>
</linearGradient>
<linearGradient id="paint1_linear_609_33" x1="35.7073" y1="12.5502" x2="25.653" y2="24.4507" gradientUnits="userSpaceOnUse">
<stop offset="0.1177" stop-color="#7ACA37"/>
<stop offset="0.2561" stop-color="#70C53A"/>
<stop offset="0.4886" stop-color="#56B641"/>
<stop offset="0.7848" stop-color="#2C9F4E"/>
<stop offset="1" stop-color="#098C58"/>
</linearGradient>
</defs>
</svg>
