<svg width="64" height="64" viewBox="0 0 64 64" fill="none" xmlns="http://www.w3.org/2000/svg">
<path d="M57.7418 21.0533L31.5533 3.59431C31.2318 3.38002 30.8135 3.38002 30.4921 3.59431L4.30353 21.0533C4.03759 21.2306 3.87752 21.5297 3.87752 21.8492C3.87752 22.1687 4.03696 22.4678 4.30353 22.6451L8.28117 25.2969V39.2719C8.28117 39.5978 8.44699 39.9013 8.72122 40.0774L30.6591 54.1416C30.8167 54.2424 30.9959 54.2928 31.1757 54.2928C31.3639 54.2928 31.5526 54.2373 31.7146 54.1263L43.1603 46.3177V51.7628L38.8963 60.2908C38.7484 60.5874 38.7643 60.94 38.9378 61.2219C39.1119 61.5032 39.4205 61.6754 39.7515 61.6754H48.4817C48.8133 61.6754 49.1213 61.5032 49.2954 61.2219C49.4689 60.94 49.4855 60.5874 49.3369 60.2908L45.0729 51.7628V45.0123L52.3286 40.0621C52.5894 39.8841 52.7457 39.5882 52.7457 39.2719V25.9755L57.7411 22.6451C58.0071 22.4678 58.1672 22.1687 58.1672 21.8492C58.1672 21.5297 58.0077 21.2306 57.7418 21.0533ZM41.3 59.7621L44.1169 54.1282L46.9339 59.7621H41.3ZM31.1591 52.1895L10.1944 38.7489V26.5724L30.4921 40.1048C30.6528 40.2119 30.8377 40.2655 31.0227 40.2655C31.2076 40.2655 31.3926 40.2119 31.5533 40.1048L43.1603 32.3663V44.0014L31.1591 52.1895ZM50.833 38.7668L45.0735 42.6966V31.0908L50.833 27.251V38.7668ZM51.4574 24.5354C51.3165 24.5877 51.1921 24.6713 51.0913 24.7797L44.1169 29.4295L31.5533 21.0533C31.1126 20.76 30.5195 20.8792 30.2267 21.3186C29.934 21.758 30.0526 22.3524 30.4921 22.6451L42.3924 30.5787L31.0227 38.159L6.55861 21.8492L31.0227 5.54008L55.4867 21.8492L51.4574 24.5354Z" fill="url(#paint0_linear_36_2269)"/>
<defs>
<linearGradient id="paint0_linear_36_2269" x1="44.2116" y1="-3.2938" x2="-3.35987" y2="49.192" gradientUnits="userSpaceOnUse">
<stop offset="0.1177" stop-color="#7ACA37"/>
<stop offset="0.2561" stop-color="#70C53A"/>
<stop offset="0.4886" stop-color="#56B641"/>
<stop offset="0.7848" stop-color="#2C9F4E"/>
<stop offset="1" stop-color="#098C58"/>
</linearGradient>
</defs>
</svg>
