<svg width="8" height="5" viewBox="0 0 8 5" fill="none" xmlns="http://www.w3.org/2000/svg">
<path d="M7.7418 0.664947C7.68996 0.612681 7.62829 0.571196 7.56033 0.542886C7.49238 0.514575 7.41949 0.5 7.34588 0.5C7.27227 0.5 7.19938 0.514575 7.13143 0.542886C7.06347 0.571196 7.0018 0.612681 6.94996 0.664947L4.39599 3.21891C4.34415 3.27118 4.28248 3.31266 4.21453 3.34097C4.14657 3.36928 4.07369 3.38386 4.00007 3.38386C3.92646 3.38386 3.85357 3.36928 3.78562 3.34097C3.71767 3.31266 3.65599 3.27118 3.60415 3.21891L1.05019 0.664947C0.998349 0.612681 0.936674 0.571196 0.868721 0.542886C0.800768 0.514575 0.727882 0.5 0.654268 0.5C0.580653 0.5 0.507767 0.514575 0.439814 0.542886C0.371862 0.571196 0.310187 0.612681 0.258347 0.664947C0.154487 0.769427 0.0961914 0.91076 0.0961914 1.05808C0.0961914 1.2054 0.154487 1.34673 0.258347 1.45121L2.81789 4.01075C3.13156 4.32403 3.55675 4.5 4.00007 4.5C4.44339 4.5 4.86859 4.32403 5.18226 4.01075L7.7418 1.45121C7.84566 1.34673 7.90396 1.2054 7.90396 1.05808C7.90396 0.91076 7.84566 0.769427 7.7418 0.664947Z" fill="white"/>
</svg>
