<svg width="96" height="96" viewBox="0 0 96 96" fill="none" xmlns="http://www.w3.org/2000/svg">
<path d="M67.3048 26.6977C67.0092 26.1658 66.418 25.8769 65.8106 25.9783C65.2098 26.0797 64.7392 26.5494 64.6349 27.1492C64.0437 30.5807 62.1907 39.0162 59.6833 44.1007C59.4604 42.5835 59.2701 40.9783 59.0835 39.4027C58.8109 37.0905 58.5526 34.9056 58.2015 33.0698C55.3211 16.8224 48.4687 5.09023 48.1789 4.59852C47.8641 4.06663 47.2443 3.7959 46.6416 3.92505C46.0379 4.05515 45.5845 4.55738 45.5175 5.17154C43.5756 22.9027 38.3141 39.9643 35.1849 46.9917C33.4161 34.3163 37.9247 18.2755 37.9754 18.0995C38.162 17.4461 37.8654 16.7525 37.2647 16.4359C36.6649 16.1202 35.9244 16.2656 35.4911 16.7889C35.3131 17.0041 31.0829 22.1298 26.7934 29.758C20.9971 40.0647 18.0583 49.5373 18.0583 57.9126C18.0583 65.6097 19.7325 72.772 22.5402 77.094C27.3683 86.25 36.772 91.9362 47.0979 91.9362C57.661 91.9362 67.4502 85.7812 72.066 76.2484C74.426 72.7356 75.8332 66.8715 75.8332 60.5252C75.8323 42.308 67.6531 27.3272 67.3048 26.6977ZM69.6352 74.7187C69.5931 74.779 69.5568 74.8431 69.5252 74.9091C65.4031 83.5092 56.6001 89.0663 47.0979 89.0663C37.8195 89.0663 29.3715 83.9445 25.0494 75.7002C25.0274 75.6591 25.0045 75.618 24.9786 75.5797C22.4426 71.712 20.9282 65.1084 20.9282 57.9126C20.9282 45.0679 28.6483 31.566 33.6132 24.2114C32.228 31.3221 30.7911 42.5682 33.1454 51.4257C33.2803 51.9327 33.6811 52.3249 34.191 52.4502C34.7009 52.5775 35.2385 52.411 35.5915 52.0236C38.4404 48.9021 44.9713 30.1645 47.7924 10.0982C50.0481 14.8364 53.5666 23.3571 55.3814 33.5893C55.7171 35.3437 55.9687 37.4789 56.2366 39.7395C56.5848 42.6897 56.9455 45.7404 57.5319 48.2573C57.6534 48.7787 58.0552 49.1891 58.5737 49.3211C59.095 49.4522 59.6413 49.2867 59.999 48.8877C63.1856 45.3262 65.4547 36.992 66.6055 31.8769C69.0124 37.389 72.9633 48.3023 72.9633 60.5242C72.9624 66.2831 71.6872 71.7226 69.6352 74.7187Z" fill="url(#paint0_linear_585_370)"/>
<defs>
<linearGradient id="paint0_linear_585_370" x1="60.9818" y1="-6.27652" x2="-9.03176" y2="48.1034" gradientUnits="userSpaceOnUse">
<stop offset="0.1177" stop-color="#7ACA37"/>
<stop offset="0.2561" stop-color="#70C53A"/>
<stop offset="0.4886" stop-color="#56B641"/>
<stop offset="0.7848" stop-color="#2C9F4E"/>
<stop offset="1" stop-color="#098C58"/>
</linearGradient>
</defs>
</svg>
