<svg width="96" height="96" viewBox="0 0 96 96" fill="none" xmlns="http://www.w3.org/2000/svg">
<path d="M86.0559 55.0001C84.7061 53.6503 82.9115 52.907 81.0021 52.907C80.9887 52.907 80.9753 52.907 80.9619 52.908C80.895 52.9051 74.9084 52.9912 72.0596 46.2986C71.2455 44.3854 70.9853 42.232 70.904 41.2295C72.6374 39.2876 73.5835 36.8118 73.5835 34.1897C73.5835 28.7743 69.4977 24.303 64.2468 23.6774V13.1526C64.2468 12.3596 63.604 11.7177 62.8119 11.7177H8.51684C7.7238 11.7177 7.08191 12.3596 7.08191 13.1526V83.32C7.08191 84.112 7.7238 84.7549 8.51684 84.7549H62.8119C63.604 84.7549 64.2468 84.112 64.2468 83.32V72.8201H84.3206C85.1127 72.8201 85.7555 72.1772 85.7555 71.3851V67.0602H86.7122C87.5043 67.0602 88.1471 66.4174 88.1471 65.6253V60.053C88.149 58.1445 87.4057 56.3508 86.0559 55.0001ZM70.7136 34.1897C70.7136 36.2637 69.9005 38.2123 68.4244 39.675C68.1441 39.9534 67.9901 40.3331 67.9997 40.7282C68.0035 40.8727 68.0992 44.3175 69.4193 47.4217C72.9598 55.7434 80.4578 55.775 81.0145 55.7759C82.152 55.7797 83.2224 56.2246 84.026 57.0291C84.8334 57.8365 85.2782 58.9098 85.2772 60.0511V64.1894H84.6334C84.533 64.1674 84.4287 64.1531 84.3206 64.1531C84.2125 64.1531 84.1092 64.1674 84.0078 64.1894H40.6957V60.0511C40.6957 57.7073 42.5918 55.797 44.9307 55.775C45.7744 55.8218 52.7253 55.9213 56.3949 47.6475C57.6528 44.813 57.914 40.9014 57.9245 40.7359C57.9503 40.3264 57.7992 39.9247 57.5093 39.6339C56.0601 38.1769 55.2622 36.2426 55.2622 34.1888C55.2622 29.9289 58.7271 26.464 62.986 26.464C67.2478 26.465 70.7136 29.9299 70.7136 34.1897ZM61.377 81.885H9.95178V14.5875H61.377V23.7309C56.2983 24.5106 52.3924 28.8967 52.3924 34.1897C52.3924 36.7774 53.3155 39.2263 55.0059 41.1568C54.8901 42.2703 54.562 44.703 53.7709 46.4842C50.7929 53.1997 45.3047 52.9242 45.0818 52.9099C45.0445 52.907 45.0063 52.9051 44.969 52.9051C41.0296 52.9051 37.824 56.1107 37.824 60.0511V65.6243C37.824 66.4164 38.4658 67.0593 39.2589 67.0593H40.3896L40.425 71.3957C40.4317 72.1839 41.0717 72.8191 41.8599 72.8191H61.3751V81.885H61.377ZM82.8866 69.9502H63.1639C63.0511 69.9215 62.9344 69.9014 62.8119 69.9014C62.6895 69.9014 62.5737 69.9215 62.4599 69.9502H43.2853L43.2614 67.0602H82.8866V69.9502Z" fill="url(#paint0_linear_585_346)"/>
<path d="M34.2997 26.5874H16.0541C15.261 26.5874 14.6191 27.2293 14.6191 28.0224C14.6191 28.8154 15.261 29.4573 16.0541 29.4573H34.2997C35.0928 29.4573 35.7347 28.8154 35.7347 28.0224C35.7347 27.2293 35.0928 26.5874 34.2997 26.5874Z" fill="url(#paint1_linear_585_346)"/>
<path d="M34.2997 33.9381H16.0541C15.261 33.9381 14.6191 34.58 14.6191 35.3731C14.6191 36.1661 15.261 36.808 16.0541 36.808H34.2997C35.0928 36.808 35.7347 36.1661 35.7347 35.3731C35.7347 34.58 35.0928 33.9381 34.2997 33.9381Z" fill="url(#paint2_linear_585_346)"/>
<path d="M34.2997 41.5509H16.0541C15.261 41.5509 14.6191 42.1928 14.6191 42.9859C14.6191 43.7789 15.261 44.4208 16.0541 44.4208H34.2997C35.0928 44.4208 35.7347 43.7789 35.7347 42.9859C35.7347 42.1928 35.0928 41.5509 34.2997 41.5509Z" fill="url(#paint3_linear_585_346)"/>
<defs>
<linearGradient id="paint0_linear_585_346" x1="67.3087" y1="3.28129" x2="9.52828" y2="79.1887" gradientUnits="userSpaceOnUse">
<stop offset="0.1177" stop-color="#7ACA37"/>
<stop offset="0.2561" stop-color="#70C53A"/>
<stop offset="0.4886" stop-color="#56B641"/>
<stop offset="0.7848" stop-color="#2C9F4E"/>
<stop offset="1" stop-color="#098C58"/>
</linearGradient>
<linearGradient id="paint1_linear_585_346" x1="30.3068" y1="26.2559" x2="29.7729" y2="30.9055" gradientUnits="userSpaceOnUse">
<stop offset="0.1177" stop-color="#7ACA37"/>
<stop offset="0.2561" stop-color="#70C53A"/>
<stop offset="0.4886" stop-color="#56B641"/>
<stop offset="0.7848" stop-color="#2C9F4E"/>
<stop offset="1" stop-color="#098C58"/>
</linearGradient>
<linearGradient id="paint2_linear_585_346" x1="30.3068" y1="33.6066" x2="29.7729" y2="38.2562" gradientUnits="userSpaceOnUse">
<stop offset="0.1177" stop-color="#7ACA37"/>
<stop offset="0.2561" stop-color="#70C53A"/>
<stop offset="0.4886" stop-color="#56B641"/>
<stop offset="0.7848" stop-color="#2C9F4E"/>
<stop offset="1" stop-color="#098C58"/>
</linearGradient>
<linearGradient id="paint3_linear_585_346" x1="30.3068" y1="41.2194" x2="29.7729" y2="45.869" gradientUnits="userSpaceOnUse">
<stop offset="0.1177" stop-color="#7ACA37"/>
<stop offset="0.2561" stop-color="#70C53A"/>
<stop offset="0.4886" stop-color="#56B641"/>
<stop offset="0.7848" stop-color="#2C9F4E"/>
<stop offset="1" stop-color="#098C58"/>
</linearGradient>
</defs>
</svg>
