<svg width="96" height="96" viewBox="0 0 96 96" fill="none" xmlns="http://www.w3.org/2000/svg">
<path d="M86.6127 31.58L47.3299 5.39152C46.8478 5.0701 46.2202 5.0701 45.7381 5.39152L6.45531 31.58C6.0564 31.846 5.81628 32.2946 5.81628 32.7739C5.81628 33.2532 6.05544 33.7018 6.45531 33.9678L12.4218 37.9454V58.9079C12.4218 59.3967 12.6705 59.8521 13.0818 60.1161L45.9887 81.2125C46.225 81.3637 46.4938 81.4392 46.7636 81.4392C47.0458 81.4392 47.3289 81.356 47.5719 81.1896L64.7404 69.4767V77.6443L58.3445 90.4363C58.1225 90.8811 58.1464 91.4101 58.4066 91.8329C58.6678 92.2548 59.1308 92.5131 59.6273 92.5131H72.7225C73.2199 92.5131 73.682 92.2548 73.9432 91.8329C74.2034 91.4101 74.2282 90.8811 74.0053 90.4363L67.6094 77.6443V67.5185L78.4929 60.0931C78.8841 59.8262 79.1185 59.3824 79.1185 58.9079V38.9633L86.6117 33.9678C87.0106 33.7018 87.2507 33.2532 87.2507 32.7739C87.2507 32.2946 87.0116 31.846 86.6127 31.58ZM61.95 89.6432L66.1754 81.1924L70.4008 89.6432H61.95ZM46.7387 78.2843L15.2916 58.1235V39.8587L45.7381 60.1572C45.9792 60.318 46.2566 60.3983 46.534 60.3983C46.8114 60.3983 47.0888 60.318 47.3299 60.1572L64.7404 48.5496V66.0022L46.7387 78.2843ZM76.2496 58.1502L67.6103 64.045V46.6363L76.2496 40.8765V58.1502ZM77.1861 36.8032C76.9747 36.8816 76.7882 37.007 76.637 37.1696L66.1754 44.1443L47.3299 31.58C46.6689 31.14 45.7792 31.3189 45.3401 31.978C44.901 32.6371 45.079 33.5287 45.7381 33.9678L63.5887 45.8682L46.534 57.2386L9.83793 32.7739L46.534 8.31018L83.2301 32.7739L77.1861 36.8032Z" fill="url(#paint0_linear_585_84)"/>
<defs>
<linearGradient id="paint0_linear_585_84" x1="66.3174" y1="-4.94063" x2="-5.03979" y2="73.7881" gradientUnits="userSpaceOnUse">
<stop offset="0.1177" stop-color="#7ACA37"/>
<stop offset="0.2561" stop-color="#70C53A"/>
<stop offset="0.4886" stop-color="#56B641"/>
<stop offset="0.7848" stop-color="#2C9F4E"/>
<stop offset="1" stop-color="#098C58"/>
</linearGradient>
</defs>
</svg>
