<svg width="96" height="96" viewBox="0 0 96 96" fill="none" xmlns="http://www.w3.org/2000/svg">
<path d="M54.1195 15.7769V11.5697H58.0398C58.8048 11.5697 59.4741 10.9004 59.4741 10.1355V3.251C59.4741 2.48606 58.8048 1.81674 58.0398 1.81674H41.3068C40.5418 1.81674 39.8725 2.48606 39.8725 3.251V10.1355C39.8725 10.9004 40.5418 11.5697 41.3068 11.5697H45.2271V15.7769C35.9522 16.8287 27.7291 21.1315 21.5139 27.4422L19.8884 25.8167L22.5657 23.1395C23.1394 22.5657 23.1394 21.7052 22.5657 21.1315L17.0199 15.5857C16.4462 15.012 15.5857 15.012 15.012 15.5857L7.45817 22.9482C6.88447 23.5219 6.88447 24.3825 7.45817 24.9562L13.004 30.502C13.2908 30.7889 13.6733 30.8845 14.0558 30.8845C14.4383 30.8845 14.8207 30.7889 15.1076 30.502L17.8805 27.7291L19.6972 29.5458C13.9602 36.3347 10.5179 45.1315 10.5179 54.6932C10.5179 76.3028 28.1116 93.8964 49.7211 93.8964C71.3307 93.8964 88.9243 76.3028 88.9243 54.6932C88.8287 34.6136 73.6255 17.9761 54.1195 15.7769ZM14.0558 27.5379L10.5179 23.9044L15.8725 18.5498L19.4104 22.0877L17.3068 24.1912C17.0199 24.4781 16.6375 24.8606 16.255 25.243L14.0558 27.5379ZM46.6614 8.7012H42.741V4.68527H56.6056V8.7012H52.6853C51.9203 8.7012 51.251 9.37053 51.251 10.1355V15.5857C50.7729 15.5857 50.1992 15.5857 49.7211 15.5857C49.243 15.5857 48.6693 15.5857 48.1912 15.5857V10.1355C48.0956 9.27491 47.4263 8.7012 46.6614 8.7012ZM49.6255 91.0279C29.6414 91.0279 13.2908 74.7729 13.2908 54.6932C13.2908 34.6136 29.5458 18.3586 49.6255 18.3586C50.3904 18.3586 51.1554 18.3586 51.9203 18.4542C52.3028 18.4542 52.6853 18.5498 53.0677 18.5498C71.5219 20.2709 85.9602 35.8566 85.9602 54.6932C85.9602 74.7729 69.7052 91.0279 49.6255 91.0279Z" fill="url(#paint0_linear_36_1877)"/>
<path d="M70.2789 31.1713C70.1833 31.0757 70.0877 30.9801 69.992 30.8845C64.5418 26.1992 57.4661 23.4263 49.7211 23.4263C32.4144 23.4263 18.4542 37.4821 18.4542 54.6932C18.4542 71.9044 32.4144 86.0558 49.6255 86.0558C66.8367 86.0558 80.8924 72 80.8924 54.7889C80.9881 45.3227 76.7809 36.9084 70.2789 31.1713ZM49.6255 83.1873C33.9442 83.1873 21.2271 70.4701 21.2271 54.7889C21.2271 39.1076 33.9442 26.3904 49.6255 26.3904C56.2231 26.3904 62.247 28.6853 67.0279 32.4144L51.5379 50.1992C50.9641 50.008 50.2948 49.8167 49.7211 49.8167C47.0438 49.8167 44.8446 52.0159 44.8446 54.6932C44.8446 57.3705 47.0438 59.5697 49.7211 59.5697C52.3984 59.5697 54.502 57.3705 54.502 54.6932C54.502 53.7371 54.2151 52.7809 53.7371 52.0159L69.3227 34.1355C74.7729 39.2988 78.1195 46.5657 78.1195 54.6932C78.1195 70.3745 65.3068 83.1873 49.6255 83.1873ZM51.6335 54.6932C51.6335 55.8406 50.7729 56.7012 49.6255 56.7012C48.4781 56.7012 47.6175 55.8406 47.6175 54.6932C47.6175 53.6414 48.4781 52.6853 49.6255 52.6853C50.7729 52.6853 51.6335 53.6414 51.6335 54.6932Z" fill="url(#paint1_linear_36_1877)"/>
<defs>
<linearGradient id="paint0_linear_36_1877" x1="67.8722" y1="-8.8192" x2="-7.60191" y2="70.6342" gradientUnits="userSpaceOnUse">
<stop offset="0.1177" stop-color="#7ACA37"/>
<stop offset="0.2561" stop-color="#70C53A"/>
<stop offset="0.4886" stop-color="#56B641"/>
<stop offset="0.7848" stop-color="#2C9F4E"/>
<stop offset="1" stop-color="#098C58"/>
</linearGradient>
<linearGradient id="paint1_linear_36_1877" x1="64.8434" y1="16.1921" x2="14.1371" y2="76.0275" gradientUnits="userSpaceOnUse">
<stop offset="0.1177" stop-color="#7ACA37"/>
<stop offset="0.2561" stop-color="#70C53A"/>
<stop offset="0.4886" stop-color="#56B641"/>
<stop offset="0.7848" stop-color="#2C9F4E"/>
<stop offset="1" stop-color="#098C58"/>
</linearGradient>
</defs>
</svg>
